<svg width="81" height="65" viewBox="0 0 81 65" fill="none" xmlns="http://www.w3.org/2000/svg">
<path d="M3.96843 8.19662C3.45466 4.87566 5.99477 1.86616 9.35495 1.81471L62.8521 0.995707C65.7258 0.951712 68.1109 3.20508 68.2301 6.07664V6.07664C68.3531 9.03938 66.0225 11.5277 63.058 11.5989L9.5699 12.8826C6.79056 12.9493 4.39346 10.944 3.96843 8.19662V8.19662Z" fill="#594E4E"/>
<path d="M2.63854 33.4338C2.28951 30.1618 4.75774 27.2665 8.04369 27.0933L63.157 24.1887C65.9142 24.0434 68.2945 26.0993 68.5519 28.8483V28.8483C68.8207 31.7181 66.6809 34.2498 63.8064 34.4631L8.76757 38.5464C5.67937 38.7755 2.96701 36.513 2.63854 33.4338V33.4338Z" fill="#8A7B7B"/>
<path d="M1.13402 56.2945C1.13402 52.9035 3.88334 50.1541 7.27428 50.1541L42.6744 50.1541C46.5431 50.1541 50.3927 50.6947 54.1116 51.7601L61.4866 53.8731V53.8731C64.8171 54.5434 64.4605 59.4139 61.0677 59.5935L7.59588 62.4236C4.08346 62.6095 1.13402 59.8119 1.13402 56.2945V56.2945Z" fill="#C1B4B4"/>
<path d="M2.00975 5.14829C3.08219 2.5251 6.05493 1.23978 8.70064 2.25536L65.4249 24.0295C68.1089 25.0597 69.473 28.0493 68.4922 30.7517V30.7517C67.4837 33.5302 64.389 34.9382 61.6317 33.8731L4.95403 11.978C2.23353 10.927 0.906095 7.84785 2.00975 5.14829V5.14829Z" fill="#D9D9D9"/>
<path d="M2.23669 30.5482C3.4151 27.652 6.69381 26.2299 9.61359 27.3485L64.428 48.3482C67.3938 49.4845 68.8984 52.7902 67.8073 55.7729V55.7729C66.6903 58.8264 63.2861 60.3708 60.2527 59.2004L5.48856 38.07C2.49134 36.9135 1.02591 33.5239 2.23669 30.5482V30.5482Z" fill="#D9D9D9"/>
</svg>
